<?xml version="1.0" encoding="utf-8"?>
<!-- Svg Vector Icons : http://www.onlinewebfonts.com/icon -->
<!DOCTYPE svg PUBLIC "-//W3C//DTD SVG 1.1//EN" "http://www.w3.org/Graphics/SVG/1.1/DTD/svg11.dtd">
<svg version="1.1" xmlns="http://www.w3.org/2000/svg" xmlns:xlink="http://www.w3.org/1999/xlink" x="0px" y="0px" viewBox="0 0 256 256" enable-background="new 0 0 256 256" xml:space="preserve">
<metadata> Svg Vector Icons : http://www.onlinewebfonts.com/icon </metadata>
<g> <path fill="#2e0c09" d="M195.4,129.7C195.4,129.7,195.4,129.7,195.4,129.7c-0.3-1.3-0.6-2.6-1.1-3.9c-0.1-0.2-0.2-0.4-0.3-0.6 c-0.1-0.1-0.2-0.3-0.2-0.4c-0.1-0.1-0.2-0.3-0.3-0.4c-0.1-0.1-0.2-0.2-0.3-0.3l0,0l-0.3-0.3l-0.1-0.1l-0.3-0.2c0,0-0.1,0-0.1-0.1 c-0.1-0.1-0.2-0.1-0.3-0.2c0,0-0.1,0-0.1-0.1l-0.3-0.2c0,0-0.1,0-0.1-0.1c-0.1-0.1-0.2-0.1-0.3-0.1c0,0-0.1,0-0.1,0 c-0.1,0-0.2-0.1-0.3-0.1c-0.1,0-0.1,0-0.1,0l-0.4-0.1c-0.1,0-0.3,0-0.4-0.1h-0.6c-0.1,0-0.3,0-0.4,0H189l-0.4,0.1c0,0-0.1,0-0.1,0 c-0.1,0-0.3,0.1-0.4,0.1h0c0,0-0.1,0-0.1,0c-0.1,0-0.2,0.1-0.3,0.1c-0.8,0.3-1.6,0.5-2.5,0.5c-3.4,0-6.2-2.8-6.2-6.3 c0-0.3,0-0.6,0.1-0.9c0.3-1.9-0.6-3.8-2.2-4.8c-1.6-1.1-3.6-1.1-5.2-0.1c-1,0.6-2.1,0.9-3.2,0.9c-3.2,0-5.8-2.4-6.2-5.6 c-0.2-2-1.6-3.7-3.6-4.2c-1.9-0.6-4,0.2-5.2,1.8c-1.2,1.6-3,2.4-4.9,2.4c-2.7,0-5.1-1.7-5.9-4.3c-0.6-1.9-2.3-3.2-4.3-3.4 c-2-0.2-3.9,0.9-4.8,2.6c-1.1,2.1-3.2,3.4-5.5,3.4c-2.3,0-4.4-1.3-5.5-3.4c-0.9-1.8-2.8-2.8-4.8-2.6c-2,0.2-3.7,1.5-4.3,3.4 c-0.8,2.6-3.2,4.4-5.9,4.4c-1.9,0-3.8-0.9-4.9-2.4c-1.2-1.6-3.3-2.3-5.2-1.8c-1.9,0.6-3.3,2.2-3.6,4.2c-0.3,3.2-3,5.6-6.2,5.6 c-1.1,0-2.2-0.3-3.2-0.9c-1.6-1-3.7-0.9-5.2,0.1c-1.6,1.1-2.4,2.9-2.2,4.8c0.1,0.3,0.1,0.6,0.1,0.9c0,3.4-2.8,6.3-6.2,6.3 c-0.9,0-1.7-0.2-2.5-0.5c-1.2-0.6-2.6-0.6-3.9,0c-1.2,0.5-2.1,1.4-2.6,2.5c0,0.1-0.1,0.1-0.1,0.2c0,0,0,0.1-0.1,0.1 c0,0.1,0,0.1-0.1,0.1s0,0.1-0.1,0.1l-0.1,0.3v0c0,0,0,0,0,0.1l-0.1,0.2c-0.1,0.3-0.2,0.6-0.3,0.9c-0.1,0.2-0.1,0.3-0.2,0.5 c-0.1,0.2-0.1,0.4-0.2,0.6l-0.2,0.6l-0.1,0.4v0c-0.2,0.8-0.3,1.6-0.4,2.4c-0.1,0.6-0.1,1.1-0.1,1.7c0,0.4,0,0.8,0,1.2v42.9 c0,6.5,0.9,12.9,2.7,19c4,13.9,12.6,26.4,24.1,35.3c11.9,9.1,26.2,13.9,41.2,13.9c15,0,29.3-4.8,41.2-13.9 c11.5-8.8,20.1-21.4,24.1-35.3c1.8-6.2,2.7-12.5,2.7-19v-42.8C196,133.2,195.8,131.4,195.4,129.7L195.4,129.7z"/> <path fill="#2e0c09" d="M128,221.7c-20.7,0-37.5-16.9-37.5-37.6c0-2.7,2.2-4.9,4.9-4.9c2.7,0,4.9,2.2,4.9,4.9 c0,15.3,12.4,27.8,27.7,27.8c15.3,0,27.7-12.5,27.7-27.8c0-2.7,2.2-4.9,4.9-4.9c2.7,0,4.9,2.2,4.9,4.9 C165.5,204.9,148.7,221.7,128,221.7z"/> <path fill="#2e0c09" d="M128,168.5c8.6,0,15.5,7,15.5,15.6c0,8.6-7,15.6-15.5,15.6s-15.5-7-15.5-15.6 C112.4,175.5,119.4,168.5,128,168.5z"/> <path fill="#eb7768" d="M199.1,176.5c0.3-2.7,2.7-4.7,5.4-4.4c3.4,0.4,6.8-1.3,8.5-4.3c1.7-3,1.5-6.8-0.5-9.6 c-1-1.4-1.2-3.2-0.6-4.8c0.7-1.6,2.1-2.7,3.8-3c3.4-0.5,6.2-3.1,7.1-6.4c0.9-3.4-0.3-6.9-3-9.1c-1.3-1.1-2-2.8-1.8-4.5 c0.2-1.7,1.3-3.2,2.9-3.9c3.2-1.4,5.2-4.6,5.2-8s-2.1-6.6-5.2-8c-1.6-0.7-2.7-2.2-2.9-3.9c-0.2-1.7,0.4-3.4,1.8-4.5 c2.7-2.2,3.9-5.8,3-9.1c-0.9-3.4-3.7-5.9-7.1-6.4c-1.7-0.3-3.1-1.4-3.8-3c-0.7-1.6-0.4-3.4,0.6-4.8c2.1-2.8,2.3-6.6,0.5-9.6 c-1.7-3-5.1-4.7-8.5-4.3c-1.7,0.2-3.4-0.5-4.4-1.9c-1.1-1.4-1.3-3.2-0.7-4.8c1.3-3.2,0.5-6.9-2-9.4c-2.4-2.4-6.1-3.2-9.4-2 c-1.6,0.6-3.4,0.4-4.8-0.7c-1.4-1.1-2.1-2.7-1.9-4.4c0.4-3.5-1.3-6.8-4.3-8.6s-6.7-1.5-9.6,0.5c-1.4,1-3.2,1.2-4.8,0.6 c-1.6-0.7-2.7-2.1-3-3.8c-0.5-3.4-3-6.3-6.4-7.2c-3.3-0.9-6.9,0.3-9.1,3c-1.1,1.3-2.8,2-4.5,1.8c-1.7-0.2-3.2-1.3-3.9-2.9 c-1.4-3.2-4.6-5.3-8-5.3c-3.4,0-6.6,2.1-8,5.3c-0.7,1.6-2.2,2.7-3.9,2.9c-1.7,0.2-3.4-0.4-4.5-1.8c-2.2-2.7-5.7-3.9-9.1-3 c-3.3,0.9-5.8,3.7-6.4,7.2c-0.3,1.7-1.4,3.2-3,3.8c-1.6,0.7-3.4,0.4-4.8-0.6c-2.8-2.1-6.6-2.3-9.6-0.5c-3,1.7-4.7,5.1-4.3,8.6 c0.2,1.7-0.5,3.4-1.9,4.4c-1.4,1.1-3.2,1.3-4.8,0.7c-3.2-1.3-6.9-0.5-9.4,2c-2.4,2.5-3.2,6.2-1.9,9.4c0.6,1.6,0.4,3.4-0.7,4.8 c-1.1,1.4-2.7,2.1-4.4,1.9c-3.4-0.4-6.8,1.3-8.5,4.3c-1.7,3-1.5,6.8,0.5,9.6c1,1.4,1.2,3.2,0.6,4.8c-0.7,1.6-2.1,2.7-3.8,3 c-3.4,0.5-6.2,3.1-7.1,6.4c-0.9,3.4,0.3,6.9,3,9.1c1.3,1.1,2,2.8,1.8,4.5c-0.2,1.7-1.3,3.2-2.9,3.9c-3.2,1.4-5.2,4.6-5.2,8 c0,2.4-1.7,4.4-4,4.8c0.7,1.8,1.8,3.5,3.1,4.8c0.3-0.3,0.7-0.7,1.1-1c2.1-1.7,5.2-1.4,6.9,0.8c1.7,2.1,1.4,5.2-0.8,6.9 c-2.7,2.2-3.9,5.8-3,9.1c0.9,3.4,3.7,5.9,7.1,6.4c1.7,0.3,3.1,1.4,3.8,3c0.7,1.6,0.4,3.4-0.6,4.8c-2.1,2.8-2.3,6.6-0.5,9.6 c1.7,3,5.1,4.7,8.5,4.3c2.7-0.3,5.1,1.7,5.4,4.4c0,0.3,0,0.6,0,0.8l3.1,0.2v-42.6c0-0.4,0-0.8,0-1.2c0-0.6,0.1-1.1,0.1-1.7 c0.1-0.8,0.2-1.6,0.4-2.4v0l0.1-0.4l0.2-0.6c0.1-0.2,0.1-0.4,0.2-0.6c0.1-0.2,0.1-0.3,0.2-0.5c0.1-0.4,0.2-0.7,0.3-0.9l0.1-0.2 c0,0,0,0,0-0.1v0l0.1-0.3c0-0.1,0-0.1,0.1-0.1c0-0.1,0-0.1,0.1-0.1c0,0,0-0.1,0.1-0.1c0-0.1,0.1-0.1,0.1-0.2 c0.5-1.1,1.4-2.1,2.6-2.5c1.2-0.5,2.7-0.5,3.9,0c0.8,0.3,1.6,0.5,2.5,0.5c3.4,0,6.2-2.8,6.2-6.3c0-0.3,0-0.6-0.1-0.9 c-0.3-1.9,0.6-3.8,2.2-4.8c1.6-1.1,3.6-1.1,5.2-0.1c1,0.6,2.1,0.9,3.2,0.9c3.2,0,5.8-2.4,6.2-5.6c0.2-2,1.6-3.7,3.6-4.2 c1.9-0.6,4,0.2,5.2,1.8c1.2,1.6,3,2.4,4.9,2.4c2.7,0,5.1-1.8,5.9-4.4c0.6-1.9,2.3-3.2,4.3-3.4c2-0.2,3.9,0.9,4.8,2.6 c1.1,2.1,3.2,3.4,5.5,3.4c2.3,0,4.4-1.3,5.5-3.4c0.9-1.8,2.8-2.8,4.8-2.6c2,0.2,3.7,1.5,4.3,3.4c0.8,2.6,3.2,4.3,5.9,4.3 c1.9,0,3.8-0.9,4.9-2.4c1.2-1.6,3.3-2.3,5.2-1.8c1.9,0.6,3.3,2.2,3.6,4.2c0.3,3.2,3,5.6,6.2,5.6c1.1,0,2.2-0.3,3.2-0.9 c1.6-1,3.7-0.9,5.2,0.1c1.6,1.1,2.4,2.9,2.2,4.8c-0.1,0.3-0.1,0.6-0.1,0.9c0,3.4,2.8,6.3,6.2,6.3c0.9,0,1.7-0.2,2.5-0.5 c0.1,0,0.2-0.1,0.3-0.1c0,0,0.1,0,0.1,0h0c0.1-0.1,0.3-0.1,0.4-0.1c0,0,0.1,0,0.1,0l0.4-0.1h0.1c0.1,0,0.3,0,0.4,0h0.6 c0.1,0,0.3,0,0.4,0.1l0.4,0.1c0.1,0,0.1,0,0.1,0c0.1,0,0.2,0.1,0.3,0.1c0,0,0.1,0,0.1,0c0.1,0,0.2,0.1,0.3,0.1c0,0,0.1,0,0.1,0.1 l0.3,0.2c0,0,0.1,0,0.1,0.1c0.1,0.1,0.2,0.1,0.3,0.2c0,0,0.1,0,0.1,0.1l0.3,0.2l0.1,0.1c0.1,0.1,0.2,0.2,0.3,0.3l0,0 c0.1,0.1,0.2,0.2,0.3,0.3c0.1,0.1,0.2,0.3,0.3,0.4c0.1,0.1,0.2,0.3,0.2,0.4c0.1,0.2,0.2,0.4,0.3,0.6c0.4,1.3,0.8,2.6,1.1,3.8 c0,0,0,0.1,0,0.1c0.3,1.7,0.5,3.5,0.5,5.2v42.6l3.1-0.2C199.1,177,199.1,176.8,199.1,176.5L199.1,176.5z"/> <path fill="#2e0c09" d="M56.9,176.5c-0.3-2.7-2.7-4.7-5.4-4.4c-3.4,0.4-6.8-1.3-8.5-4.3c-1.7-3-1.5-6.8,0.5-9.6 c1-1.4,1.2-3.2,0.6-4.8c-0.7-1.6-2.1-2.7-3.8-3c-3.4-0.5-6.2-3.1-7.1-6.4c-0.9-3.4,0.3-6.9,3-9.1c2.1-1.7,2.4-4.8,0.8-6.9 c-1.7-2.1-4.8-2.5-6.9-0.8c-0.4,0.3-0.7,0.6-1.1,1c-4.9,4.7-7,11.7-5.2,18.4c1.3,5,4.7,9.2,9.1,11.5c-1.4,4.8-0.9,10.1,1.7,14.6 c3.3,5.8,9.5,9.3,16.1,9.3c0.7,0,1.4,0,2.1-0.1c2.4-0.3,4.2-2.3,4.4-4.6C56.9,177,56.9,176.8,56.9,176.5z"/> <path fill="#2e0c09" d="M236.1,118.5c0-5.2-2.2-10.1-5.8-13.5c2.6-4.3,3.4-9.5,2.1-14.5c-1.3-5-4.7-9.2-9.1-11.5 c1.4-4.8,0.9-10.1-1.7-14.6c-2.6-4.5-6.9-7.6-11.7-8.8c0.1-5-1.8-10-5.4-13.7c-3.7-3.7-8.6-5.6-13.6-5.4c-1.2-4.9-4.3-9.2-8.8-11.8 c-4.5-2.6-9.8-3.2-14.5-1.7c-2.4-4.4-6.5-7.8-11.5-9.1c-5-1.3-10.2-0.5-14.5,2.1c-3.4-3.6-8.3-5.8-13.5-5.8c-5.2,0-10,2.2-13.5,5.8 c-4.3-2.6-9.5-3.4-14.5-2.1c-5,1.3-9.1,4.7-11.5,9.1c-4.8-1.4-10.1-0.9-14.5,1.7c-4.5,2.6-7.6,6.9-8.8,11.8 c-5-0.1-9.9,1.8-13.6,5.4c-3.7,3.7-5.6,8.7-5.4,13.7c-4.9,1.2-9.2,4.3-11.7,8.8c-2.6,4.5-3.2,9.8-1.7,14.6 c-4.4,2.4-7.7,6.5-9.1,11.5c-1.3,5-0.5,10.3,2.1,14.5c-3.6,3.5-5.8,8.3-5.8,13.5c0,2.7,2.2,4.9,4.9,4.9c0.3,0,0.6,0,0.9-0.1 c2.3-0.4,4-2.4,4-4.8c0-3.5,2.1-6.6,5.2-8c1.6-0.7,2.7-2.2,2.9-3.9c0.2-1.7-0.4-3.4-1.8-4.5c-2.7-2.2-3.9-5.8-3-9.1 c0.9-3.4,3.7-5.9,7.1-6.4c1.7-0.3,3.1-1.4,3.8-3s0.4-3.4-0.6-4.8c-2.1-2.8-2.3-6.6-0.5-9.6c1.7-3,5.1-4.7,8.5-4.3 c1.7,0.2,3.4-0.5,4.4-1.9c1.1-1.4,1.3-3.2,0.7-4.8c-1.3-3.2-0.5-6.9,1.9-9.4c2.4-2.5,6.1-3.2,9.4-2c1.6,0.6,3.4,0.4,4.8-0.7 c1.4-1.1,2.1-2.7,1.9-4.4c-0.4-3.5,1.3-6.8,4.3-8.6c3-1.7,6.7-1.5,9.6,0.5c1.4,1,3.2,1.2,4.8,0.6c1.6-0.7,2.7-2.1,3-3.8 c0.5-3.4,3-6.3,6.4-7.2c3.3-0.9,6.9,0.3,9.1,3c1.1,1.3,2.8,2,4.5,1.8c1.7-0.2,3.2-1.3,3.9-2.9c1.4-3.2,4.6-5.3,8-5.3 c3.5,0,6.6,2.1,8,5.3c0.7,1.6,2.2,2.7,3.9,2.9c1.7,0.2,3.4-0.4,4.5-1.8c2.2-2.7,5.7-3.9,9.1-3c3.3,0.9,5.8,3.7,6.4,7.2 c0.3,1.7,1.4,3.2,3,3.8c1.6,0.7,3.4,0.4,4.8-0.6c2.8-2.1,6.6-2.3,9.5-0.5c3,1.7,4.7,5.1,4.3,8.6c-0.2,1.7,0.5,3.4,1.9,4.4 c1.4,1.1,3.2,1.3,4.8,0.7c3.2-1.3,6.9-0.5,9.4,2c2.4,2.5,3.2,6.2,2,9.4c-0.6,1.6-0.4,3.4,0.7,4.8c1.1,1.4,2.7,2.1,4.4,1.9 c3.4-0.4,6.8,1.3,8.5,4.3c1.7,3,1.5,6.8-0.5,9.6c-1,1.4-1.2,3.2-0.6,4.8c0.7,1.6,2.1,2.7,3.8,3c3.4,0.5,6.2,3.1,7.1,6.4 c0.9,3.4-0.3,6.9-3,9.1c-1.3,1.1-2,2.8-1.8,4.5c0.2,1.7,1.3,3.2,2.9,3.9c3.2,1.4,5.2,4.6,5.2,8s-2.1,6.6-5.2,8 c-1.6,0.7-2.7,2.2-2.9,3.9c-0.2,1.7,0.4,3.4,1.8,4.5c2.7,2.2,3.9,5.8,3,9.1c-0.9,3.4-3.7,5.9-7.1,6.4c-1.7,0.3-3.1,1.4-3.8,3 c-0.7,1.6-0.4,3.4,0.6,4.8c2.1,2.8,2.3,6.6,0.5,9.6c-1.7,3-5.1,4.7-8.5,4.3c-2.7-0.3-5.1,1.7-5.4,4.4c0,0.3,0,0.6,0,0.8 c0.1,2.4,1.9,4.3,4.4,4.6c0.7,0.1,1.4,0.1,2.1,0.1c6.6,0,12.7-3.5,16.1-9.3c2.6-4.5,3.2-9.8,1.7-14.6c4.4-2.4,7.7-6.5,9.1-11.5 c1.3-5,0.5-10.3-2.1-14.6C233.9,128.5,236.1,123.7,236.1,118.5z"/> <path fill="#e8472f" d="M122.3,184.1c0,3.2,2.6,5.7,5.7,5.7s5.7-2.6,5.7-5.7c0-3.2-2.6-5.7-5.7-5.7 C124.8,178.4,122.3,180.9,122.3,184.1z"/> <path fill="#f2f2f2" d="M128,236.2c-25.7,0-48.7-17.3-55.9-42.1c-1.5-5.3-2.3-10.7-2.3-16.3v-42.8c0-0.3,0-0.5,0-0.8 c0-0.3,0-0.6,0.1-0.8c0.3,0,0.5,0,0.8,0c7.2,0,13.3-4.7,15.3-11.3c0.5,0.1,1,0.1,1.4,0.1c5.5,0,10.4-2.7,13.3-7 c2.1,0.9,4.3,1.4,6.7,1.4c4.4,0,8.4-1.7,11.3-4.7c2.7,1.8,5.8,2.9,9.2,2.9c3.3,0,6.5-1,9.2-2.9c2.9,2.9,7,4.7,11.3,4.7 c2.3,0,4.6-0.5,6.7-1.4c2.9,4.3,7.8,7,13.3,7c0.5,0,1,0,1.4-0.1c2.1,6.5,8.2,11.3,15.3,11.3c0.3,0,0.5,0,0.8,0 c0.1,0.6,0.1,1.1,0.1,1.7v42.9c0,5.6-0.8,11-2.3,16.3C176.7,218.8,153.7,236.2,128,236.2z"/> <path fill="#2e0c09" d="M128,199.7c8.6,0,15.5-7,15.5-15.6c0-8.6-7-15.6-15.5-15.6s-15.5,7-15.5,15.6 C112.4,192.7,119.4,199.7,128,199.7z"/> <path fill="#e8472f" d="M133.7,184.1c0,3.2-2.6,5.7-5.7,5.7s-5.7-2.6-5.7-5.7c0-3.2,2.6-5.7,5.7-5.7S133.7,180.9,133.7,184.1z"/> <path fill="#2e0c09" d="M160.6,179.1c-2.7,0-4.9,2.2-4.9,4.9c0,15.3-12.4,27.8-27.7,27.8c-15.3,0-27.7-12.5-27.7-27.8 c0-2.7-2.2-4.9-4.9-4.9c-2.7,0-4.9,2.2-4.9,4.9c0,20.8,16.8,37.6,37.5,37.6s37.5-16.9,37.5-37.6 C165.5,181.4,163.3,179.1,160.6,179.1L160.6,179.1z M95.4,155.7h2.8v3.6c0,2.7,2.2,4.9,4.9,4.9c2.7,0,4.9-2.2,4.9-4.9v-3.6h2.8 c2.7,0,4.9-2.2,4.9-4.9c0-2.7-2.2-4.9-4.9-4.9h-2.8v-3.6c0-2.7-2.2-4.9-4.9-4.9c-2.7,0-4.9,2.2-4.9,4.9v3.6h-2.8 c-2.7,0-4.9,2.2-4.9,4.9C90.5,153.5,92.7,155.7,95.4,155.7z M167,145.8h-2.8v-3.6c0-2.7-2.2-4.9-4.9-4.9c-2.7,0-4.9,2.2-4.9,4.9 v3.6h-2.8c-2.7,0-4.9,2.2-4.9,4.9c0,2.7,2.2,4.9,4.9,4.9h2.8v3.6c0,2.7,2.2,4.9,4.9,4.9c2.7,0,4.9-2.2,4.9-4.9v-3.6h2.8 c2.7,0,4.9-2.2,4.9-4.9C171.9,148,169.7,145.8,167,145.8z"/></g>
</svg>